<svg width="303" height="280" viewBox="0 0 303 280" fill="none" xmlns="http://www.w3.org/2000/svg">
<path d="M127.102 189.947L127.102 119.335" stroke="#1E1E1E" stroke-width="2.82449" stroke-linecap="round"/>
<g clip-path="url(#clip0_126_3)">
<path d="M248.202 129.22C239.427 129.22 232.314 136.333 232.314 145.108C232.314 153.882 239.427 160.996 248.202 160.996C256.976 160.996 264.089 153.882 264.089 145.108C264.089 136.333 256.976 129.22 248.202 129.22ZM246.126 132.405L246.213 132.303C246.435 132.048 246.685 131.758 246.723 131.261C246.756 130.847 246.61 130.555 246.452 130.319C247.026 130.251 247.609 130.213 248.202 130.213C248.929 130.213 249.643 130.268 250.343 130.369C250.473 130.531 250.643 130.7 250.92 130.814C251.214 130.941 251.561 131.041 251.998 130.938C252.127 130.907 252.228 130.852 252.314 130.793C252.621 130.88 252.924 130.976 253.223 131.083C253.328 131.385 253.529 131.745 254.02 131.807C254.296 131.847 254.526 131.803 254.729 131.717C258.936 133.772 262.028 137.75 262.866 142.507C262.785 142.679 262.773 142.848 262.77 142.955C262.769 142.984 262.772 143.015 262.774 143.023C262.756 143.05 262.733 143.065 262.623 143.118C262.496 143.179 262.323 143.262 262.164 143.43C261.983 143.617 261.899 143.803 261.832 143.952C261.78 144.068 261.75 144.131 261.696 144.185C261.662 144.219 261.594 144.239 261.488 144.27C261.28 144.329 260.967 144.419 260.756 144.76C260.556 145.083 260.573 145.381 260.585 145.598C260.587 145.623 260.589 145.648 260.59 145.674C260.551 145.693 260.505 145.712 260.456 145.728C260.485 145.571 260.489 145.354 260.348 145.131C260.159 144.842 259.908 144.798 259.776 144.798C259.524 144.798 259.333 144.943 259.211 145.062C259.214 144.821 259.208 144.6 259.169 144.434C259.132 144.267 259.156 144.175 259.234 143.905L259.261 143.811C259.297 143.683 259.367 143.592 259.463 143.465C259.596 143.291 259.76 143.075 259.839 142.741C259.927 142.378 259.901 142.11 259.876 141.85C259.866 141.758 259.857 141.661 259.852 141.55L259.843 141.287C259.833 140.978 259.825 140.712 259.749 140.322L259.715 140.149C259.638 139.758 259.572 139.421 259.293 138.996C259.054 138.639 258.865 138.388 258.447 138.166C258.348 138.111 258.245 138.068 258.14 138.035C257.971 137.978 257.816 137.959 257.666 137.94L257.511 137.919C257.247 137.88 257.008 137.926 256.833 137.962C256.691 137.991 256.601 138.014 256.53 137.975C256.459 137.936 256.425 137.895 256.337 137.784C256.29 137.725 256.241 137.663 256.176 137.591C256.111 137.521 256.066 137.455 256.023 137.393C255.937 137.271 255.832 137.119 255.646 136.969C255.447 136.808 255.296 136.694 255.011 136.595C254.504 136.427 254.037 136.552 253.635 136.694C253.306 136.809 253.104 136.974 252.926 137.12C252.848 137.185 252.766 137.253 252.686 137.307C252.608 137.353 252.537 137.385 252.47 137.416C252.314 137.489 252.135 137.573 251.938 137.748C251.801 137.868 251.336 138.171 251.228 138.199C251.18 138.197 251.132 138.177 251.046 138.14C250.933 138.092 250.78 138.026 250.604 138.012L250.496 138.006C250.463 138.006 250.428 138.008 250.403 138.01C250.178 138.027 250.019 138.1 249.903 138.154C249.857 138.174 249.81 138.198 249.752 138.213C249.58 138.255 249.386 138.252 249.192 138.242C248.88 138.226 248.575 138.235 248.295 138.314C248.065 138.379 247.899 138.492 247.778 138.574C247.647 138.662 247.616 138.678 247.566 138.678C247.516 138.678 247.48 138.658 247.342 138.548C247.205 138.44 247.017 138.292 246.739 138.215C246.539 138.161 246.396 138.144 246.245 138.125L246.108 138.108C245.847 138.071 245.661 138.055 245.45 138.038C245.352 138.03 245.249 138.022 245.128 138.01L244.988 138.008L244.966 138.017C244.949 138.018 244.93 138.019 244.908 138.02L244.903 138.016C244.744 137.905 244.58 137.792 244.338 137.674C244.161 137.587 244.016 137.521 243.857 137.463C243.85 137.286 243.831 137.05 243.777 136.891C243.766 136.855 243.754 136.823 243.739 136.783C243.744 136.76 243.754 136.722 243.773 136.664C243.838 136.477 243.938 136.337 243.982 136.281C244.009 136.263 244.034 136.247 244.057 136.231C244.15 136.172 244.265 136.097 244.383 135.969C244.714 135.619 244.865 135.28 244.902 134.799C244.932 134.369 244.692 134.08 244.534 133.888C244.488 133.834 244.417 133.749 244.407 133.738C244.429 133.654 244.466 133.618 244.674 133.481C244.787 133.406 244.905 133.326 245.018 133.227C245.146 133.116 245.269 133.046 245.411 132.965C245.633 132.839 245.885 132.695 246.126 132.405ZM234.501 150.959C233.936 149.638 233.558 148.218 233.397 146.733C233.518 146.505 233.666 146.284 233.866 146.039C234.01 145.868 234.162 145.764 234.338 145.645C234.552 145.499 234.795 145.333 235.025 145.045C235.301 144.709 235.391 144.351 235.464 144.062C235.543 143.753 235.587 143.599 235.751 143.485C235.98 143.33 236.16 143.313 236.488 143.282C236.606 143.271 236.73 143.259 236.868 143.24L237.05 143.213C237.695 143.118 238.106 143.075 238.642 143.226C239.006 143.328 239.23 143.498 239.513 143.712C239.7 143.854 239.911 144.014 240.181 144.168C240.391 144.288 240.568 144.42 240.739 144.547C241.122 144.832 241.518 145.126 242.176 145.222C242.553 145.274 242.871 145.158 243.112 145.067C243.232 145.021 243.346 144.977 243.417 144.977C243.434 144.977 243.455 144.979 243.488 144.997C243.814 145.178 243.886 145.328 243.9 145.431C243.83 145.45 243.729 145.467 243.655 145.481C243.306 145.542 242.657 145.656 242.582 146.324C242.544 146.647 242.655 146.849 242.756 146.961C243.016 147.255 243.501 147.223 244.047 147.1C244.283 147.047 244.527 146.992 244.722 146.992C244.811 146.992 244.863 147.004 244.887 147.012C245.031 147.064 245.186 147.102 245.338 147.138C245.404 147.153 245.493 147.174 245.57 147.195C245.514 147.206 245.456 147.216 245.407 147.224C245.178 147.264 244.92 147.308 244.683 147.421C244.496 147.508 244.337 147.59 244.188 147.668C243.883 147.826 243.641 147.951 243.274 148.051C243.162 148.081 242.991 148.056 242.812 148.025C242.67 148.001 242.524 147.976 242.369 147.976C242.002 147.976 241.714 148.122 241.513 148.406C241.055 149.047 241.327 149.718 241.458 150.041C241.636 150.479 242.056 151.002 243.04 151.002C243.503 151.002 244.039 150.89 244.726 150.648C245.199 150.48 245.477 150.177 245.699 149.933C245.879 149.735 246.021 149.579 246.25 149.477L246.503 149.362C247.023 149.122 247.404 148.951 247.813 149.144C247.923 149.196 247.971 149.294 248.071 149.54C248.186 149.827 248.345 150.22 248.787 150.456C249.19 150.669 249.693 150.592 250.061 150.486C250.281 150.423 250.458 150.369 250.586 150.444C250.72 150.524 250.776 150.632 250.878 150.85C250.97 151.044 251.083 151.285 251.302 151.515C251.367 151.584 251.429 151.651 251.488 151.715C251.851 152.113 252.194 152.488 252.874 152.649C252.972 152.672 253.072 152.683 253.171 152.683C253.519 152.683 253.798 152.545 254.023 152.433C254.215 152.338 254.364 152.266 254.485 152.304C254.992 152.47 255.097 152.584 255.145 152.786C255.186 152.949 255.014 153.085 254.378 153.392C254.277 153.442 254.176 153.49 254.08 153.54C253.738 153.716 253.482 153.738 253.094 153.771C252.939 153.784 252.774 153.799 252.596 153.823C252.236 153.868 251.91 153.946 251.596 154.021C251.233 154.109 250.89 154.191 250.591 154.191C250.293 154.191 250.055 154.109 249.824 153.928C249.636 153.777 249.548 153.617 249.427 153.395C249.339 153.235 249.24 153.052 249.083 152.845C248.944 152.67 248.825 152.419 248.71 152.175C248.456 151.637 248.14 150.968 247.42 150.968C247.298 150.968 247.17 150.99 247.041 151.034C246.482 151.222 246.296 151.67 246.16 151.996C246.101 152.137 246.046 152.269 245.971 152.379C245.785 152.644 245.691 152.926 245.608 153.175C245.468 153.592 245.425 153.642 245.314 153.658C245.134 153.684 245.022 153.608 244.755 153.415C244.676 153.358 244.593 153.298 244.506 153.24C244.334 153.126 244.233 152.999 244.104 152.838C243.961 152.659 243.798 152.456 243.531 152.264C243.235 152.045 242.967 151.941 242.731 151.848C242.541 151.773 242.376 151.709 242.194 151.588C242.125 151.542 242.064 151.465 241.993 151.374C241.832 151.17 241.588 150.86 241.106 150.843L241.056 150.842C240.693 150.842 240.186 150.971 239.832 151.585C239.703 151.808 239.613 152.108 239.517 152.426C239.361 152.945 239.147 153.654 238.812 153.654C238.465 153.631 237.445 152.738 236.954 152.308C236.603 152 236.299 151.735 236.08 151.59L235.915 151.476C235.54 151.215 235.154 150.947 234.643 150.947C234.597 150.947 234.549 150.954 234.501 150.959ZM248.202 160.003C242.5 160.003 237.548 156.797 235.045 152.091C235.14 152.149 235.24 152.216 235.347 152.29L235.527 152.413C235.694 152.524 235.987 152.781 236.299 153.053C237.331 153.957 238.111 154.6 238.746 154.643C239.868 154.717 240.228 153.501 240.467 152.71C240.542 152.46 240.62 152.202 240.691 152.079C240.822 151.852 240.948 151.833 241.074 151.832C241.102 151.847 241.168 151.932 241.212 151.987C241.314 152.117 241.442 152.279 241.642 152.413C241.914 152.593 242.154 152.687 242.368 152.771C242.572 152.851 242.749 152.92 242.945 153.065C243.106 153.18 243.208 153.309 243.328 153.457C243.481 153.649 243.654 153.865 243.956 154.066C244.032 154.117 244.103 154.168 244.171 154.217C244.493 154.451 244.864 154.722 245.452 154.64C246.199 154.533 246.409 153.905 246.548 153.489C246.616 153.287 246.68 153.096 246.787 152.942C246.922 152.744 247.004 152.549 247.075 152.378C247.202 152.072 247.244 152.012 247.357 151.974C247.391 151.962 247.41 151.959 247.423 151.961C247.524 151.992 247.711 152.387 247.811 152.599C247.943 152.88 248.094 153.197 248.296 153.452C248.402 153.592 248.476 153.728 248.555 153.871C248.697 154.131 248.858 154.427 249.206 154.706C249.617 155.027 250.069 155.184 250.59 155.184C251.006 155.184 251.405 155.088 251.826 154.987C252.114 154.918 252.413 154.846 252.724 154.807C252.889 154.785 253.037 154.773 253.177 154.76C253.609 154.724 254.017 154.689 254.535 154.422C254.623 154.376 254.716 154.331 254.809 154.287C255.427 153.988 256.361 153.536 256.108 152.549C255.915 151.728 255.185 151.489 254.789 151.36C254.663 151.32 254.535 151.3 254.406 151.3C254.072 151.3 253.799 151.435 253.58 151.544C253.389 151.639 253.23 151.712 253.1 151.683C252.72 151.593 252.532 151.387 252.22 151.046C252.157 150.976 252.091 150.905 252.021 150.831C251.912 150.717 251.849 150.583 251.776 150.427C251.651 150.161 251.496 149.83 251.093 149.59C250.688 149.349 250.164 149.423 249.784 149.533C249.565 149.596 249.389 149.651 249.254 149.579C249.141 149.519 249.089 149.414 248.991 149.169C248.872 148.874 248.709 148.469 248.236 148.246C247.974 148.123 247.714 148.063 247.441 148.063C246.949 148.063 246.53 148.257 246.086 148.462L245.846 148.571C245.427 148.758 245.171 149.039 244.965 149.265C244.772 149.477 244.633 149.629 244.396 149.713C243.827 149.913 243.383 150.011 243.041 150.011C242.58 150.011 242.447 149.837 242.378 149.669C242.21 149.255 242.226 149.119 242.369 148.971C242.456 148.971 242.549 148.99 242.646 149.006C242.905 149.05 243.242 149.087 243.531 149.012C244.004 148.884 244.316 148.722 244.645 148.551C244.783 148.479 244.93 148.403 245.106 148.321C245.222 148.266 245.402 148.235 245.576 148.205C245.961 148.139 246.765 148.001 246.707 147.17C246.647 146.428 245.97 146.269 245.565 146.173C245.452 146.147 245.335 146.121 245.223 146.08C245.082 146.03 244.928 146.004 244.754 146.001C244.827 145.894 244.877 145.761 244.891 145.594C244.933 144.986 244.624 144.494 243.97 144.131C243.796 144.036 243.611 143.987 243.418 143.987C243.164 143.987 242.949 144.069 242.76 144.141C242.589 144.206 242.44 144.259 242.318 144.242C241.911 144.182 241.668 144.002 241.333 143.753C241.147 143.615 240.936 143.458 240.675 143.308C240.46 143.186 240.293 143.058 240.114 142.924C239.791 142.679 239.457 142.425 238.913 142.272C238.22 142.078 237.63 142.126 236.906 142.233L236.728 142.259C236.61 142.276 236.501 142.286 236.398 142.295C236.022 142.331 235.633 142.367 235.19 142.67C234.709 143.003 234.595 143.457 234.503 143.821C234.444 144.053 234.393 144.253 234.254 144.423C234.114 144.599 233.966 144.699 233.78 144.826C233.634 144.926 233.474 145.037 233.31 145.191C233.309 145.162 233.307 145.135 233.307 145.108C233.307 137.853 238.495 131.812 245.363 130.487C245.418 130.572 245.475 130.655 245.529 130.73C245.702 130.968 245.745 131.044 245.733 131.184C245.721 131.349 245.658 131.428 245.462 131.653L245.365 131.767C245.236 131.922 245.104 131.998 244.919 132.103C244.756 132.196 244.571 132.301 244.368 132.477C244.287 132.548 244.204 132.601 244.125 132.653C243.889 132.81 243.564 133.025 243.445 133.497C243.324 133.986 243.603 134.323 243.77 134.524C243.824 134.59 243.915 134.699 243.913 134.728C243.893 134.982 243.84 135.102 243.658 135.294C243.622 135.333 243.592 135.353 243.521 135.4C243.465 135.435 243.406 135.474 243.34 135.524L243.28 135.579C243.25 135.61 242.989 135.898 242.834 136.349C242.716 136.704 242.711 136.889 242.812 137.142L242.834 137.201C242.852 137.261 242.869 137.472 242.87 137.609L242.828 138.214L243.232 138.314C243.498 138.38 243.632 138.436 243.904 138.57C244.078 138.654 244.193 138.733 244.338 138.834L244.484 138.933C244.679 139.049 244.876 139.029 245.086 139.006C245.191 139.016 245.283 139.023 245.371 139.03C245.562 139.045 245.731 139.059 245.971 139.094L246.127 139.113C246.248 139.128 246.345 139.139 246.479 139.174C246.555 139.196 246.62 139.245 246.728 139.33C246.912 139.475 247.163 139.673 247.575 139.673C247.934 139.67 248.166 139.512 248.336 139.397C248.434 139.33 248.494 139.292 248.567 139.271C248.74 139.222 248.937 139.224 249.139 139.234C249.428 139.251 249.722 139.245 249.994 139.177C250.121 139.146 250.221 139.102 250.318 139.057C250.402 139.018 250.433 139.005 250.444 139.003L250.48 139.004L250.505 139.001C250.538 139.004 250.589 139.025 250.654 139.053C250.781 139.107 250.956 139.183 251.219 139.192C251.755 139.192 252.585 138.502 252.595 138.493C252.687 138.412 252.764 138.376 252.892 138.316C252.982 138.274 253.077 138.229 253.208 138.153C253.345 138.062 253.454 137.973 253.557 137.888C253.703 137.769 253.799 137.689 253.964 137.632C254.31 137.509 254.475 137.463 254.69 137.535C254.812 137.578 254.862 137.612 255.02 137.741C255.098 137.804 255.139 137.863 255.209 137.962C255.276 138.059 255.348 138.159 255.444 138.262C255.488 138.31 255.523 138.356 255.557 138.399C255.665 138.535 255.8 138.706 256.052 138.845C256.366 139.016 256.751 138.991 257.034 138.934C257.161 138.908 257.26 138.884 257.366 138.901L257.542 138.925C257.663 138.94 257.75 138.951 257.835 138.979C257.878 138.992 257.922 139.01 257.976 139.039C258.194 139.155 258.275 139.258 258.466 139.544C258.636 139.803 258.673 139.994 258.741 140.34L258.776 140.517C258.836 140.823 258.843 141.03 258.851 141.317L258.861 141.591C258.867 141.722 258.877 141.838 258.888 141.946C258.909 142.164 258.923 142.308 258.874 142.511C258.845 142.635 258.786 142.717 258.675 142.863C258.549 143.029 258.392 143.235 258.307 143.543L258.282 143.627C258.193 143.935 258.107 144.226 258.203 144.657C258.225 144.752 258.221 145.034 258.217 145.24C258.208 145.802 258.202 146.173 258.438 146.412C258.546 146.522 258.689 146.582 258.84 146.582L258.994 146.572L259.096 146.523C259.237 146.455 259.36 146.359 259.47 146.251C259.474 146.26 259.477 146.269 259.481 146.278C259.617 146.583 259.909 146.758 260.283 146.758C260.692 146.758 261.52 146.468 261.577 145.931C261.59 145.79 261.585 145.662 261.578 145.541C261.567 145.367 261.571 145.333 261.604 145.28C261.623 145.265 261.707 145.241 261.762 145.225C261.936 145.175 262.172 145.107 262.392 144.895C262.584 144.705 262.67 144.513 262.739 144.36C262.791 144.245 262.82 144.181 262.881 144.119C262.917 144.081 262.965 144.056 263.054 144.014C263.079 144.376 263.096 144.74 263.096 145.108C263.096 153.334 256.428 160.003 248.202 160.003Z" fill="#4E4E4E"/>
<path d="M254.472 143.203C253.926 143.36 253.729 143.777 253.585 144.082C253.508 144.246 253.441 144.387 253.331 144.488C253.136 144.67 252.948 144.77 252.73 144.887C252.487 145.016 252.213 145.162 251.929 145.427C251.828 145.521 251.711 145.602 251.601 145.681C251.235 145.94 250.681 146.333 250.843 147.073C250.95 147.537 251.307 147.814 251.798 147.814C252.123 147.814 252.476 147.7 252.818 147.59C252.987 147.536 253.154 147.481 253.307 147.447C254.176 147.257 254.772 147.029 255.423 146.375C255.495 146.304 255.569 146.233 255.645 146.16C256.208 145.624 257.058 144.813 256.426 143.875C256.001 143.237 255.247 142.98 254.472 143.203ZM254.959 145.441C254.878 145.518 254.799 145.595 254.721 145.672C254.233 146.163 253.824 146.317 253.094 146.477C252.912 146.517 252.713 146.58 252.513 146.645C252.263 146.725 251.982 146.816 251.811 146.82C251.821 146.76 251.9 146.686 252.176 146.49C252.31 146.394 252.464 146.286 252.605 146.154C252.795 145.977 252.98 145.878 253.196 145.763C253.441 145.633 253.719 145.485 254.006 145.216C254.256 144.986 254.382 144.72 254.483 144.506C254.61 144.237 254.649 144.185 254.747 144.157C254.843 144.129 254.936 144.115 255.024 144.115C255.268 144.115 255.462 144.219 255.6 144.427C255.728 144.618 255.584 144.845 254.959 145.441Z" fill="#4E4E4E"/>
<path d="M248.411 155.574C248.296 155.574 248.18 155.592 248.06 155.629C247.336 155.862 247.37 156.589 247.388 156.98C247.395 157.123 247.401 157.259 247.388 157.377C247.376 157.485 247.347 157.588 247.32 157.687C247.232 158.021 247.099 158.525 247.537 158.957C247.744 159.155 248.004 159.26 248.292 159.26C248.718 159.26 249.199 159.014 249.579 158.598C250.162 157.949 250.169 157.001 249.601 156.298C249.336 155.961 248.962 155.574 248.411 155.574ZM248.843 157.931C248.641 158.152 248.413 158.267 248.292 158.267C248.262 158.267 248.247 158.261 248.223 158.241C248.213 158.195 248.254 158.043 248.281 157.942C248.316 157.807 248.357 157.654 248.374 157.488C248.397 157.294 248.388 157.103 248.38 156.933C248.375 156.818 248.367 156.65 248.382 156.57C248.465 156.555 248.563 156.585 248.824 156.916C249.091 157.248 249.098 157.647 248.843 157.931Z" fill="#4E4E4E"/>
</g>
<circle cx="248.202" cy="145.108" r="16.5939" stroke="#4E4E4E" stroke-width="1.41224"/>
<path d="M137.517 130.165H160.576V134.689H142.041V143.736H157.862V148.259H142.041V157.284H160.576V161.808H137.517V130.165ZM167.351 134.689C167.351 134.071 167.468 133.49 167.704 132.945C167.939 132.386 168.263 131.908 168.675 131.511C169.087 131.099 169.565 130.775 170.109 130.54C170.668 130.29 171.256 130.165 171.874 130.165H189.042C189.66 130.165 190.241 130.29 190.785 130.54C191.344 130.775 191.83 131.099 192.242 131.511C192.653 131.908 192.977 132.386 193.212 132.945C193.448 133.49 193.566 134.071 193.566 134.689V138.771H189.042V134.689H171.874V157.284H189.042V153.224H193.566V157.284C193.566 157.902 193.448 158.491 193.212 159.05C192.977 159.594 192.653 160.072 192.242 160.484C191.83 160.896 191.344 161.22 190.785 161.455C190.241 161.69 189.66 161.808 189.042 161.808H171.874C171.256 161.808 170.668 161.69 170.109 161.455C169.565 161.22 169.087 160.896 168.675 160.484C168.263 160.072 167.939 159.594 167.704 159.05C167.468 158.491 167.351 157.902 167.351 157.284V134.689ZM204.886 134.689V138.771H200.362V134.689C200.362 134.071 200.48 133.49 200.715 132.945C200.95 132.386 201.274 131.908 201.686 131.511C202.098 131.099 202.576 130.775 203.12 130.54C203.679 130.29 204.268 130.165 204.886 130.165H219.207C219.824 130.165 220.405 130.29 220.95 130.54C221.509 130.775 221.987 131.099 222.384 131.511C222.796 131.908 223.12 132.386 223.355 132.945C223.605 133.49 223.73 134.071 223.73 134.689V140.47C223.73 141.088 223.671 141.639 223.554 142.125C223.436 142.61 223.245 143.052 222.98 143.449C222.73 143.831 222.406 144.177 222.009 144.486C221.612 144.795 221.126 145.089 220.553 145.369L204.886 152.717V157.284H219.78V153.224H224.304V161.808H200.362V153.489C200.362 152.871 200.421 152.319 200.538 151.834C200.671 151.349 200.862 150.915 201.112 150.532C201.362 150.15 201.686 149.804 202.083 149.495C202.495 149.171 202.973 148.877 203.517 148.612L219.207 141.242V134.689H204.886Z" fill="url(#paint0_linear_126_3)"/>
<path d="M137.677 170.298H145.604V171.853H139.232V174.963H144.671V176.518H139.232V179.62H145.604V181.175H137.677V170.298ZM154.926 181.175H153.432V174.591H149.268V181.175H147.781V173.097H149.268V174.523C149.278 174.326 149.323 174.141 149.404 173.969C149.485 173.792 149.591 173.641 149.723 173.514C149.859 173.383 150.016 173.282 150.193 173.211C150.37 173.135 150.56 173.097 150.762 173.097H153.432C153.639 173.097 153.834 173.137 154.016 173.218C154.198 173.294 154.355 173.4 154.486 173.537C154.623 173.668 154.729 173.825 154.805 174.007C154.886 174.189 154.926 174.384 154.926 174.591V181.175ZM159.712 181.175L156.481 173.097H158.036L160.486 179.385L162.944 173.097H164.499L161.267 181.175H159.712ZM167.631 173.097V181.175H166.137V173.097H167.631ZM166.061 169.987H167.707V171.542H166.061V169.987ZM171.69 174.591V181.175H170.203V173.097H171.69V174.523C171.7 174.326 171.745 174.141 171.826 173.969C171.907 173.792 172.013 173.641 172.145 173.514C172.281 173.383 172.438 173.282 172.615 173.211C172.792 173.135 172.982 173.097 173.184 173.097H174.769C174.977 173.097 175.169 173.137 175.346 173.218C175.528 173.294 175.687 173.4 175.824 173.537C175.96 173.668 176.066 173.825 176.142 174.007C176.223 174.189 176.264 174.384 176.264 174.591V175.957H174.769V174.591H171.69ZM185.108 179.681C185.108 179.888 185.068 180.083 184.987 180.265C184.911 180.447 184.805 180.606 184.668 180.743C184.537 180.874 184.38 180.981 184.198 181.062C184.021 181.137 183.829 181.175 183.621 181.175H179.609C179.406 181.175 179.214 181.137 179.032 181.062C178.85 180.981 178.691 180.874 178.554 180.743C178.423 180.606 178.317 180.447 178.236 180.265C178.16 180.083 178.122 179.888 178.122 179.681V174.591C178.122 174.384 178.16 174.189 178.236 174.007C178.317 173.825 178.423 173.668 178.554 173.537C178.691 173.4 178.85 173.294 179.032 173.218C179.214 173.137 179.406 173.097 179.609 173.097H183.621C183.829 173.097 184.021 173.137 184.198 173.218C184.38 173.294 184.537 173.4 184.668 173.537C184.805 173.668 184.911 173.825 184.987 174.007C185.068 174.189 185.108 174.384 185.108 174.591V179.681ZM179.609 174.591V179.681H183.621V174.591H179.609ZM189.09 174.591V179.681H192.944V178.316H194.438V179.681C194.438 179.888 194.397 180.083 194.317 180.265C194.241 180.447 194.134 180.606 193.998 180.743C193.866 180.874 193.71 180.981 193.528 181.062C193.346 181.137 193.151 181.175 192.944 181.175H189.09C188.888 181.175 188.696 181.137 188.514 181.062C188.332 180.981 188.172 180.874 188.036 180.743C187.904 180.606 187.798 180.447 187.717 180.265C187.641 180.083 187.604 179.888 187.604 179.681V174.591C187.604 174.384 187.641 174.189 187.717 174.007C187.798 173.825 187.904 173.668 188.036 173.537C188.172 173.4 188.332 173.294 188.514 173.218C188.696 173.137 188.888 173.097 189.09 173.097H192.944C193.151 173.097 193.346 173.137 193.528 173.218C193.71 173.294 193.866 173.4 193.998 173.537C194.134 173.668 194.241 173.825 194.317 174.007C194.397 174.189 194.438 174.384 194.438 174.591V175.957H192.944V174.591H189.09ZM203.92 179.681C203.92 179.888 203.879 180.083 203.798 180.265C203.722 180.447 203.616 180.606 203.48 180.743C203.348 180.874 203.191 180.981 203.009 181.062C202.832 181.137 202.64 181.175 202.433 181.175H198.42C198.218 181.175 198.026 181.137 197.844 181.062C197.662 180.981 197.502 180.874 197.366 180.743C197.234 180.606 197.128 180.447 197.047 180.265C196.971 180.083 196.933 179.888 196.933 179.681V174.591C196.933 174.384 196.971 174.189 197.047 174.007C197.128 173.825 197.234 173.668 197.366 173.537C197.502 173.4 197.662 173.294 197.844 173.218C198.026 173.137 198.218 173.097 198.42 173.097H202.433C202.64 173.097 202.832 173.137 203.009 173.218C203.191 173.294 203.348 173.4 203.48 173.537C203.616 173.668 203.722 173.825 203.798 174.007C203.879 174.189 203.92 174.384 203.92 174.591V179.681ZM198.42 174.591V179.681H202.433V174.591H198.42ZM212.817 174.591V181.175H211.323V174.591H207.902V181.175H206.415V173.097H207.902V174.523C207.912 174.326 207.957 174.141 208.038 173.969C208.119 173.792 208.225 173.641 208.357 173.514C208.493 173.383 208.65 173.282 208.827 173.211C209.004 173.135 209.194 173.097 209.396 173.097H211.323C211.52 173.097 211.707 173.135 211.884 173.211C212.061 173.282 212.218 173.383 212.354 173.514C212.491 173.641 212.6 173.792 212.681 173.969C212.766 174.141 212.812 174.326 212.817 174.523C212.827 174.326 212.87 174.141 212.946 173.969C213.027 173.792 213.133 173.641 213.265 173.514C213.401 173.383 213.558 173.282 213.735 173.211C213.912 173.135 214.102 173.097 214.304 173.097H216.23C216.438 173.097 216.632 173.137 216.815 173.218C216.997 173.294 217.153 173.4 217.285 173.537C217.421 173.668 217.528 173.825 217.603 174.007C217.684 174.189 217.725 174.384 217.725 174.591V181.175H216.23V174.591H212.817ZM227.366 179.681C227.366 179.888 227.325 180.083 227.244 180.265C227.168 180.447 227.062 180.606 226.926 180.743C226.794 180.874 226.637 180.981 226.455 181.062C226.273 181.137 226.079 181.175 225.871 181.175H221.707V184.437H220.22V173.097H221.707V174.462C221.722 174.27 221.773 174.093 221.859 173.931C221.945 173.764 222.053 173.62 222.185 173.499C222.316 173.373 222.468 173.274 222.64 173.203C222.817 173.132 223.004 173.097 223.201 173.097H225.871C226.079 173.097 226.273 173.137 226.455 173.218C226.637 173.294 226.794 173.4 226.926 173.537C227.062 173.668 227.168 173.825 227.244 174.007C227.325 174.189 227.366 174.384 227.366 174.591V179.681ZM225.871 179.681V174.591H221.707V179.681H225.871ZM236.84 179.681C236.84 179.888 236.799 180.083 236.718 180.265C236.642 180.447 236.536 180.606 236.4 180.743C236.268 180.874 236.111 180.981 235.929 181.062C235.752 181.137 235.56 181.175 235.353 181.175H231.34C231.138 181.175 230.946 181.137 230.764 181.062C230.582 180.981 230.423 180.874 230.286 180.743C230.155 180.606 230.048 180.447 229.967 180.265C229.892 180.083 229.854 179.888 229.854 179.681V174.591C229.854 174.384 229.892 174.189 229.967 174.007C230.048 173.825 230.155 173.668 230.286 173.537C230.423 173.4 230.582 173.294 230.764 173.218C230.946 173.137 231.138 173.097 231.34 173.097H235.353C235.56 173.097 235.752 173.137 235.929 173.218C236.111 173.294 236.268 173.4 236.4 173.537C236.536 173.668 236.642 173.825 236.718 174.007C236.799 174.189 236.84 174.384 236.84 174.591V179.681ZM231.34 174.591V179.681H235.353V174.591H231.34ZM244.213 179.681V177.807H240.67C240.463 177.807 240.268 177.769 240.086 177.694C239.904 177.613 239.745 177.507 239.608 177.375C239.477 177.239 239.371 177.079 239.29 176.897C239.214 176.715 239.176 176.52 239.176 176.313V174.591C239.176 174.384 239.214 174.189 239.29 174.007C239.371 173.825 239.477 173.668 239.608 173.537C239.745 173.4 239.904 173.294 240.086 173.218C240.268 173.137 240.463 173.097 240.67 173.097H245.396V174.591H240.67V176.313H244.213C244.42 176.313 244.612 176.354 244.789 176.434C244.971 176.51 245.13 176.617 245.267 176.753C245.403 176.885 245.51 177.041 245.586 177.223C245.666 177.405 245.707 177.6 245.707 177.807V179.681C245.707 179.888 245.666 180.083 245.586 180.265C245.51 180.447 245.403 180.606 245.267 180.743C245.13 180.874 244.971 180.981 244.789 181.062C244.612 181.137 244.42 181.175 244.213 181.175H239.176V179.681H244.213ZM247.573 173.097H249.545V170.609H251.039V173.097H253.694V174.591H251.039V179.681H253.694V181.175H251.039C250.837 181.175 250.645 181.137 250.463 181.062C250.281 180.981 250.122 180.874 249.985 180.743C249.848 180.606 249.74 180.447 249.659 180.265C249.583 180.083 249.545 179.888 249.545 179.681V174.591H247.573V173.097ZM262.402 171.853V173.256H260.847V171.853C260.847 171.641 260.888 171.441 260.968 171.254C261.049 171.062 261.161 170.897 261.302 170.761C261.444 170.619 261.608 170.508 261.795 170.427C261.987 170.341 262.19 170.298 262.402 170.298H267.325C267.537 170.298 267.737 170.341 267.924 170.427C268.116 170.508 268.281 170.619 268.417 170.761C268.559 170.897 268.67 171.062 268.751 171.254C268.837 171.441 268.88 171.641 268.88 171.853V173.84C268.88 174.053 268.86 174.242 268.819 174.409C268.779 174.576 268.713 174.728 268.622 174.864C268.536 174.996 268.425 175.115 268.288 175.221C268.152 175.327 267.985 175.428 267.788 175.524L262.402 178.05V179.62H267.522V178.225H269.077V181.175H260.847V178.316C260.847 178.103 260.867 177.914 260.908 177.747C260.953 177.58 261.019 177.431 261.105 177.299C261.191 177.168 261.302 177.049 261.439 176.943C261.58 176.831 261.745 176.73 261.932 176.639L267.325 174.106V171.853H262.402ZM280.273 179.62C280.273 179.833 280.233 180.035 280.152 180.227C280.071 180.414 279.96 180.579 279.818 180.72C279.676 180.862 279.509 180.973 279.317 181.054C279.13 181.135 278.93 181.175 278.718 181.175H273.279C273.067 181.175 272.865 181.135 272.673 181.054C272.485 180.973 272.321 180.862 272.18 180.72C272.038 180.579 271.927 180.414 271.846 180.227C271.765 180.035 271.724 179.833 271.724 179.62V171.853C271.724 171.641 271.765 171.441 271.846 171.254C271.927 171.062 272.038 170.897 272.18 170.761C272.321 170.619 272.485 170.508 272.673 170.427C272.865 170.341 273.067 170.298 273.279 170.298H278.718C278.93 170.298 279.13 170.341 279.317 170.427C279.509 170.508 279.676 170.619 279.818 170.761C279.96 170.897 280.071 171.062 280.152 171.254C280.233 171.441 280.273 171.641 280.273 171.853V179.62ZM273.279 171.853V179.62H278.718V171.853H273.279Z" fill="url(#paint1_linear_126_3)"/>
<path d="M115.994 94.1795C113.023 92.8222 110.358 94.9377 107.97 94.2015C106.173 93.6474 105.447 91.5956 105.157 90.3183C105.157 90.3183 103.836 90.2412 102.366 90.5526C101.873 90.6575 101.794 89.6549 102.203 89.5539C107.379 88.2761 113.173 92.2174 113.173 92.2174C113.173 92.2174 110.678 88.319 105.597 88.1079C106.304 87.5103 108.269 85.9649 110.896 87.0454C114.46 88.5089 116.688 94.4966 115.994 94.1795Z" fill="#1E1E1E"/>
<path d="M253.712 21.0789C248.33 21.6212 246.288 26.8714 242.259 27.8142C239.226 28.5238 236.474 26.1969 234.993 24.6131C234.993 24.6131 233.04 25.6063 231.199 27.2797C230.582 27.8414 229.631 26.4742 230.131 25.9883C236.463 19.8374 248.039 20.6312 248.039 20.6312C248.039 20.6312 241.215 17.1426 233.775 21.0857C234.287 19.6403 235.804 15.7899 240.463 15.1395C246.781 14.2544 254.968 20.953 253.712 21.0789Z" fill="#4E4E4E"/>
<path d="M168.409 30.4609C167.121 33.0257 164.132 33.0429 162.901 34.8613C161.975 36.2299 162.607 38.0345 163.111 39.0689C163.111 39.0689 162.249 39.8484 161.071 40.444C160.676 40.6435 161.173 41.3736 161.509 41.2179C165.757 39.2449 167.556 33.3572 167.556 33.3572C167.556 33.3572 167.993 37.4002 164.629 40.3407C165.442 40.3606 167.638 40.3381 168.843 38.1524C170.478 35.189 168.71 29.8621 168.409 30.4609Z" fill="#4E4E4E"/>
<path d="M107.263 96.6532C103.377 98.934 103.655 103.619 100.932 105.733C98.8819 107.324 95.9899 106.518 94.3177 105.833C94.3177 105.833 93.1845 107.264 92.3716 109.171C92.0994 109.81 90.9046 109.106 91.1143 108.564C93.7716 101.706 102.813 98.2852 102.813 98.2852C102.813 98.2852 96.4334 98.0149 92.1699 103.586C92.0557 102.313 91.8665 98.8706 95.1681 96.7594C99.644 93.8941 108.171 96.1214 107.263 96.6532Z" fill="#4E4E4E"/>
<path d="M71.6727 90.3409C70.8726 91.9336 69.0166 91.9443 68.2524 93.0735C67.6773 93.9234 68.0697 95.044 68.3828 95.6863C68.3828 95.6863 67.8475 96.1704 67.1159 96.5403C66.8704 96.6641 67.1793 97.1175 67.3877 97.0208C70.0256 95.7956 71.1431 92.1395 71.1431 92.1395C71.1431 92.1395 71.414 94.6501 69.3252 96.4761C69.8303 96.4884 71.1938 96.4745 71.9421 95.1172C72.9577 93.277 71.8592 89.9691 71.6727 90.3409Z" fill="#4E4E4E"/>
<path d="M79.1294 99.7223C81.6644 101.21 81.4828 104.265 83.2589 105.644C84.5956 106.681 86.4817 106.156 87.5723 105.709C87.5723 105.709 88.3114 106.642 88.8415 107.886C89.019 108.303 89.7982 107.843 89.6615 107.49C87.9284 103.018 82.0321 100.787 82.0321 100.787C82.0321 100.787 86.1925 100.61 88.973 104.243C89.0475 103.414 89.1709 101.168 87.0177 99.7915C84.0986 97.9229 78.5376 99.3754 79.1294 99.7223Z" fill="#4E4E4E"/>
<path d="M207.699 4.55215C203.361 7.99103 204.325 14.0268 201.356 17.1048C199.121 19.4213 195.556 18.7369 193.465 18.058C193.465 18.058 192.304 20.0525 191.59 22.6246C191.351 23.4875 189.828 22.7226 190.005 21.9947C192.256 12.7782 202.599 7.22057 202.599 7.22057C202.599 7.22057 194.939 7.66367 190.595 15.4125C190.287 13.7779 189.597 9.34056 193.258 6.19417C198.22 1.92468 208.711 3.75014 207.699 4.55215Z" fill="#4E4E4E"/>
<path d="M45.8513 170.687C43.1473 172.273 43.341 175.532 41.4465 177.003C40.0206 178.109 38.0088 177.549 36.8455 177.073C36.8455 177.073 36.0572 178.068 35.4917 179.394C35.3024 179.839 34.4712 179.349 34.6171 178.972C36.4656 174.202 42.755 171.822 42.755 171.822C42.755 171.822 38.3173 171.634 35.3514 175.509C35.2719 174.624 35.1403 172.229 37.4371 170.76C40.5507 168.767 46.4826 170.317 45.8513 170.687Z" fill="#4E4E4E"/>
<path d="M0.798354 181.964C3.39485 180.633 3.38749 177.594 5.22572 176.328C6.60921 175.375 8.44888 176.003 9.50456 176.507C9.50456 176.507 10.2898 175.624 10.8855 174.421C11.085 174.018 11.8313 174.517 11.6758 174.86C9.7055 179.195 3.73548 181.073 3.73548 181.073C3.73548 181.073 7.84895 181.483 10.8101 178.039C10.837 178.866 10.8325 181.098 8.62057 182.341C5.62186 184.028 0.192171 182.274 0.798354 181.964Z" fill="#4E4E4E"/>
<path d="M0.651155 153.098C2.7653 154.353 4.92863 152.984 6.65621 153.727C7.95645 154.286 8.33448 155.879 8.44874 156.858C8.44874 156.858 9.43059 157.022 10.5555 156.907C10.9327 156.868 10.9113 157.625 10.5973 157.667C6.6223 158.207 2.60431 154.793 2.60431 154.793C2.60431 154.793 4.1577 157.91 7.94201 158.476C7.36459 158.867 5.77079 159.865 3.89198 158.845C1.34344 157.464 0.157883 152.805 0.651155 153.098Z" fill="#4E4E4E"/>
<path d="M23.1561 154.172C24.8066 155.362 26.6903 154.393 28.0598 155.132C29.0905 155.688 29.2851 157.029 29.3074 157.845C29.3074 157.845 30.1047 158.052 31.0403 158.04C31.3542 158.035 31.2809 158.657 31.019 158.67C27.7027 158.823 24.6415 155.713 24.6415 155.713C24.6415 155.713 25.693 158.396 28.7708 159.141C28.2662 159.42 26.8791 160.126 25.4053 159.148C23.406 157.822 22.771 153.895 23.1561 154.172Z" fill="#4E4E4E"/>
<path d="M73.962 50.5486C78.7225 53.8059 78.2138 60.2375 81.5314 63.2289C84.0284 65.4804 87.657 64.4633 89.7626 63.5748C89.7626 63.5748 91.1241 65.5767 92.0702 68.2237C92.387 69.1118 93.899 68.1801 93.6566 67.4289C90.5853 57.9182 79.4471 52.9317 79.4471 52.9317C79.4471 52.9317 87.3989 52.7599 92.5145 60.5519C92.7008 58.8062 93.0554 54.0794 89.0178 51.0735C83.5442 46.9942 72.8505 49.789 73.962 50.5486Z" fill="#1E1E1E"/>
<path d="M47.0533 92.6574C51.0323 95.4514 50.6033 100.974 53.3758 103.54C55.4625 105.472 58.4973 104.596 60.2586 103.832C60.2586 103.832 61.396 105.55 62.1857 107.822C62.45 108.585 63.7149 107.784 63.5126 107.139C60.9498 98.9754 51.6387 94.7004 51.6387 94.7004C51.6387 94.7004 58.2882 94.5484 62.5615 101.236C62.7182 99.7366 63.0174 95.6781 59.6428 93.0997C55.068 89.6005 46.1243 92.0059 47.0533 92.6574Z" fill="#1E1E1E"/>
<path d="M60.8945 84.6247C62.2496 85.6834 62.0978 87.784 63.0414 88.7574C63.7516 89.49 64.7882 89.1541 65.39 88.8618C65.39 88.8618 65.7765 89.5141 66.0437 90.3775C66.1332 90.6671 66.5656 90.3613 66.4972 90.1163C65.6306 87.0139 62.4573 85.3972 62.4573 85.3972C62.4573 85.3972 64.7267 85.3328 66.1785 87.8719C66.2334 87.3017 66.3395 85.7578 65.1904 84.7805C63.6326 83.4541 60.5781 84.3778 60.8945 84.6247Z" fill="#1E1E1E"/>
<path d="M95.6835 27.5846C102.585 28.8719 105.646 36.581 110.859 38.3131C114.783 39.6168 118.082 36.5473 119.83 34.4208C119.83 34.4208 122.403 36.0279 124.895 38.598C125.73 39.4607 126.821 37.5939 126.141 36.8509C117.538 27.4451 102.868 27.4823 102.868 27.4823C102.868 27.4823 111.25 23.1366 121.071 29.4872C120.291 27.3696 118.021 21.714 112.032 20.3407C103.91 18.4739 94.0728 27.2851 95.6835 27.5846Z" fill="#4E4E4E"/>
<path d="M50.0039 131.423C50.9486 127.892 48.0141 124.723 48.3709 121.884C48.6394 119.748 50.8222 118.887 52.2136 118.544C52.2136 118.544 52.0364 116.974 51.3884 115.226C51.1707 114.64 52.2925 114.547 52.489 115.033C54.9762 121.187 51.6649 128.071 51.6649 128.071C51.6649 128.071 55.5886 125.108 54.81 119.069C55.6299 119.91 57.7772 122.247 57.0776 125.369C56.1311 129.604 49.7829 132.247 50.0039 131.423Z" fill="#1E1E1E"/>
<path d="M93.7353 42.7339C96.4733 45.1281 95.5611 48.8406 97.4032 50.9314C98.7896 52.505 101.196 52.2812 102.62 51.9768C102.62 51.9768 103.306 53.288 103.667 54.9343C103.788 55.4866 104.837 55.0961 104.751 54.6315C103.662 48.7501 97.0152 44.6906 97.0152 44.6906C97.0152 44.6906 102.102 45.4044 104.651 50.4892C104.93 49.4865 105.588 46.756 103.288 44.5831C100.17 41.6348 93.096 42.1755 93.7353 42.7339Z" fill="#4E4E4E"/>
<path d="M21.0905 140.122C19.2449 143.59 21.5899 146.942 20.5323 149.755C19.7363 151.872 17.2208 152.593 15.6665 152.848C15.6665 152.848 15.4778 154.428 15.7445 156.215C15.8344 156.815 14.6253 156.836 14.5338 156.338C13.3773 150.033 18.53 143.365 18.53 143.365C18.53 143.365 13.6691 146.076 13.0455 152.16C12.3799 151.267 10.6681 148.796 12.1564 145.722C14.1726 141.551 21.5217 139.313 21.0905 140.122Z" fill="#1E1E1E"/>
<path d="M8.30074 228.252C10.9509 222.546 17.4984 222.307 20.0721 218.24C22.0092 215.179 20.503 211.267 19.3284 209.035C19.3284 209.035 21.1648 207.269 23.7062 205.884C24.5589 205.421 23.4196 203.854 22.6949 204.218C13.5202 208.827 9.97403 221.849 9.97403 221.849C9.97403 221.849 8.74585 213.02 15.9177 206.35C14.1342 206.362 9.32479 206.559 6.83202 211.429C3.44832 218.032 7.68294 229.584 8.30074 228.252Z" fill="#1E1E1E"/>
<path d="M8.30074 228.252C10.9509 222.546 17.4984 222.307 20.0721 218.24C22.0092 215.179 20.503 211.267 19.3284 209.035C19.3284 209.035 21.1648 207.269 23.7062 205.884C24.5589 205.421 23.4196 203.854 22.6949 204.218C13.5202 208.827 9.97403 221.849 9.97403 221.849C9.97403 221.849 8.74585 213.02 15.9177 206.35C14.1342 206.362 9.32479 206.559 6.83202 211.429C3.44832 218.032 7.68294 229.584 8.30074 228.252Z" fill="#1E1E1E"/>
<path d="M236.775 45.5169C234.417 42.966 235.669 39.572 234.132 37.4041C232.975 35.7725 230.662 35.721 229.275 35.8524C229.275 35.8524 228.758 34.544 228.585 32.9556C228.527 32.4227 227.488 32.6759 227.522 33.1224C227.95 38.7752 233.856 43.3186 233.856 43.3186C233.856 43.3186 229.09 42.0932 227.188 37.031C226.82 37.9442 225.911 40.4418 227.876 42.7369C230.538 45.8505 237.326 46.1119 236.775 45.5169Z" fill="#1E1E1E"/>
<path d="M162.307 52.8393C160.38 52.273 159.994 50.2174 158.588 49.5976C157.53 49.131 156.367 49.7917 155.718 50.2682C155.718 50.2682 155.074 49.7721 154.516 49.0355C154.329 48.7882 153.889 49.222 154.038 49.4336C155.928 52.1115 160.206 52.6143 160.206 52.6143C160.206 52.6143 157.477 53.4201 155.032 51.472C155.12 52.0344 155.41 53.5433 157.066 54.0996C159.31 54.855 162.756 52.9713 162.307 52.8393Z" fill="#4E4E4E"/>
<path d="M211.029 31.6557C209.102 31.0893 208.717 29.0338 207.311 28.4139C206.253 27.9474 205.089 28.608 204.44 29.0845C204.44 29.0845 203.796 28.5885 203.239 27.8518C203.052 27.6046 202.611 28.0384 202.761 28.2499C204.65 30.9278 208.928 31.4307 208.928 31.4307C208.928 31.4307 206.199 32.2365 203.755 30.2883C203.843 30.8508 204.132 32.3596 205.788 32.9159C208.033 33.6714 211.479 31.7876 211.029 31.6557Z" fill="#4E4E4E"/>
<path d="M177.365 50.3021C173.964 49.5917 173.016 46.1007 170.506 45.2261C168.617 44.5678 166.703 45.8676 165.649 46.7789C165.649 46.7789 164.47 46.0125 163.407 44.8193C163.051 44.4189 162.351 45.2277 162.638 45.5718C166.265 49.9282 173.712 50.2043 173.712 50.2043C173.712 50.2043 169.118 51.9705 164.633 48.9492C164.863 49.9068 165.571 52.4684 168.502 53.1989C172.477 54.1915 178.158 50.4674 177.365 50.3021Z" fill="#1E1E1E"/>
<path d="M87.4577 125.57C85.5309 125.003 85.1454 122.948 83.7396 122.328C82.6816 121.862 81.5183 122.522 80.8692 122.999C80.8692 122.999 80.2247 122.503 79.6673 121.766C79.4806 121.519 79.0401 121.953 79.1893 122.164C81.0787 124.842 85.3571 125.345 85.3571 125.345C85.3571 125.345 82.6282 126.151 80.1833 124.202C80.2713 124.765 80.5613 126.274 82.2167 126.83C84.4613 127.586 87.9075 125.702 87.4577 125.57Z" fill="#4E4E4E"/>
<path d="M36.5889 115.835C38.0429 114.449 40.0158 115.143 41.2556 114.236C42.1887 113.553 42.1983 112.215 42.1103 111.415C42.1103 111.415 42.8621 111.105 43.7788 110.991C44.0863 110.952 43.9309 110.354 43.6731 110.377C40.4092 110.674 37.8342 114.128 37.8342 114.128C37.8342 114.128 38.5011 111.362 41.4108 110.219C40.8797 110.014 39.4281 109.51 38.1185 110.666C36.3418 112.232 36.2497 116.158 36.5889 115.835Z" fill="#4E4E4E"/>
<path d="M97.6904 78.9993C97.1329 80.4593 95.266 80.8909 94.6726 81.971C94.2259 82.7838 94.7955 83.5933 95.2108 84.0372C95.2108 84.0372 94.7472 84.5475 94.0683 85.011C93.8404 85.1663 94.2221 85.4596 94.4168 85.3345C96.8818 83.7504 97.4374 80.5627 97.4374 80.5627C97.4374 80.5627 98.1011 82.515 96.2826 84.4559C96.793 84.3506 98.1636 84.0286 98.7055 82.7692C99.4414 81.0616 97.8202 78.6585 97.6904 78.9993Z" fill="#1E1E1E"/>
<path d="M174.566 0.743333C174.172 6.14105 169.062 8.20294 168.24 12.2454C167.621 15.2878 169.98 18.0399 171.576 19.5208C171.576 19.5208 170.65 21.4811 169.052 23.3321C168.516 23.9525 169.885 24.9016 170.35 24.399C176.234 18.033 175.153 6.42943 175.153 6.42943C175.153 6.42943 178.76 13.261 175.076 20.7317C176.484 20.2138 180.231 18.6818 180.75 14.0091C181.456 7.67288 174.657 -0.516538 174.566 0.743333Z" fill="#1E1E1E"/>
<path d="M147.297 36.9861C147.41 39.3368 145.282 40.553 145.136 42.3473C145.025 43.6978 146.204 44.732 146.98 45.2676C146.98 45.2676 146.679 46.1716 146.077 47.0716C145.875 47.3733 146.525 47.6943 146.701 47.448C148.941 44.3278 147.854 39.3981 147.854 39.3981C147.854 39.3981 149.794 42.1098 148.576 45.5647C149.165 45.2512 150.724 44.3508 150.705 42.3044C150.679 39.5293 147.27 36.4375 147.297 36.9861Z" fill="#1E1E1E"/>
<path d="M43.4254 101.866C43.9493 103.805 45.9958 104.236 46.5846 105.655C47.0278 106.723 46.3416 107.871 45.851 108.51C45.851 108.51 46.3328 109.165 47.057 109.738C47.3001 109.931 46.8567 110.361 46.6485 110.208C44.0127 108.26 43.6041 103.971 43.6041 103.971C43.6041 103.971 42.7385 106.682 44.6324 109.169C44.072 109.069 42.5699 108.745 42.0502 107.078C41.3443 104.818 43.3034 101.414 43.4254 101.866Z" fill="#1E1E1E"/>
<path d="M125.136 51.3615C126.579 51.9616 126.956 53.8404 128.018 54.4653C128.817 54.9357 129.643 54.3901 130.099 53.988C130.099 53.988 130.595 54.4664 131.039 55.1587C131.187 55.391 131.492 55.0181 131.372 54.8198C129.861 52.3093 126.691 51.6603 126.691 51.6603C126.691 51.6603 128.662 51.0542 130.549 52.929C130.459 52.4157 130.177 51.0362 128.934 50.4576C127.249 49.6719 124.799 51.2217 125.136 51.3615Z" fill="#1E1E1E"/>
<path d="M79.4366 70.6052C80.5226 71.729 80.1221 73.6029 80.8486 74.5983C81.3954 75.3474 82.3701 75.1747 82.9481 74.9867C82.9481 74.9867 83.2138 75.6229 83.3458 76.4344C83.3898 76.7066 83.8173 76.4852 83.7865 76.2559C83.3968 73.3518 80.7453 71.4972 80.7453 71.4972C80.7453 71.4972 82.7948 71.7237 83.7818 74.1935C83.9028 73.6866 84.1922 72.3088 83.2814 71.2841C82.0467 69.8937 79.183 70.3431 79.4366 70.6052Z" fill="#1E1E1E"/>
<path d="M153.292 67.2111C149.466 64.3428 144.996 66.536 141.811 64.7378C139.414 63.3845 139.017 60.2243 139.001 58.3074C139.001 58.3074 137.137 57.7849 134.937 57.7713C134.2 57.7673 134.4 56.3092 135.016 56.2923C142.815 56.0809 149.87 63.525 149.87 63.525C149.87 63.525 147.519 57.1719 140.32 55.2841C141.518 54.6506 144.809 53.054 148.229 55.4191C152.868 58.624 154.184 67.8811 153.292 67.2111Z" fill="#1E1E1E"/>
<path d="M39.9937 157.101C38.3768 159.649 35.2477 159.354 33.7695 161.128C32.657 162.463 33.1291 164.417 33.5483 165.552C33.5483 165.552 32.5646 166.278 31.2694 166.777C30.8348 166.945 31.2789 167.761 31.6463 167.633C36.2979 166.014 38.7979 160.042 38.7979 160.042C38.7979 160.042 38.8306 164.318 35.0029 167.042C35.8519 167.148 38.1517 167.355 39.6415 165.194C41.6633 162.265 40.3707 156.506 39.9937 157.101Z" fill="#1E1E1E"/>
<path d="M221.928 3.5572C221.513 9.00083 216.385 11.0171 215.546 15.0872C214.914 18.1505 217.267 20.9585 218.861 22.4738C218.861 22.4738 217.926 24.4408 216.317 26.2889C215.778 26.9083 217.146 27.8838 217.614 27.3824C223.534 21.0312 222.495 9.30442 222.495 9.30442C222.495 9.30442 226.084 16.2464 222.364 23.7406C223.777 23.2358 227.537 21.737 228.074 17.0269C228.807 10.6399 222.024 2.2866 221.928 3.5572Z" fill="#1E1E1E"/>
<path d="M139.165 20.3289C136.378 23.8949 138.369 28.1669 136.607 31.1471C135.281 33.3902 132.282 33.7062 130.468 33.6849C130.468 33.6849 129.938 35.4394 129.883 37.5205C129.866 38.2185 128.489 38.0016 128.485 37.4183C128.433 30.0326 135.612 23.4974 135.612 23.4974C135.612 23.4974 129.555 25.6018 127.631 32.3793C127.055 31.2333 125.606 28.0883 127.909 24.8969C131.031 20.5675 139.816 19.497 139.165 20.3289Z" fill="#1E1E1E"/>
<path d="M156.515 11.8853C153.844 15.8118 156.225 20.1459 154.587 23.3881C153.354 25.8283 150.237 26.3672 148.336 26.4707C148.336 26.4707 147.903 28.3442 147.99 30.5266C148.02 31.2586 146.564 31.1271 146.519 30.5167C145.952 22.7885 153.014 15.4489 153.014 15.4489C153.014 15.4489 146.819 18.0722 145.276 25.3008C144.593 24.141 142.858 20.9491 145.048 17.4483C148.015 12.6994 157.138 10.9692 156.515 11.8853Z" fill="#4E4E4E"/>
<path d="M120.217 78.7564C122.885 74.8339 120.506 70.5043 122.143 67.2655C123.374 64.8278 126.488 64.2895 128.387 64.186C128.387 64.186 128.82 62.3145 128.733 60.1343C128.703 59.4031 130.157 59.5345 130.202 60.1442C130.768 67.8645 123.713 75.1965 123.713 75.1965C123.713 75.1965 129.902 72.5759 131.444 65.3548C132.126 66.5134 133.859 69.7019 131.672 73.1991C128.708 77.9431 119.594 79.6715 120.217 78.7564Z" fill="#4E4E4E"/>
<path d="M100.488 129.97C98.4092 126.622 94.3206 126.968 92.4135 124.633C90.9781 122.877 91.6193 120.331 92.181 118.855C92.181 118.855 90.906 117.895 89.2215 117.227C88.6563 117.003 89.2464 115.943 89.7244 116.114C95.7763 118.287 98.9639 126.115 98.9639 126.115C98.9639 126.115 99.061 120.533 94.0987 116.928C95.2084 116.801 98.2133 116.56 100.131 119.4C102.733 123.25 100.972 130.751 100.488 129.97Z" fill="#1E1E1E"/>
<path d="M273.569 53.7446C270.034 52.3352 269.67 48.3888 267.127 46.9706C265.213 45.9033 262.901 46.9441 261.593 47.7284C261.593 47.7284 260.464 46.6785 259.543 45.19C259.234 44.6905 258.327 45.4311 258.571 45.8566C261.662 51.2433 269.645 52.9486 269.645 52.9486C269.645 52.9486 264.354 53.9864 260.086 49.8783C260.152 50.9552 260.433 53.8533 263.458 55.1956C267.559 57.0179 274.394 54.073 273.569 53.7446Z" fill="#1E1E1E"/>
<path d="M196.655 264.089L179.708 263.736L177.59 263.383L173 261.971L187.122 262.677H195.243L203.01 263.383L196.655 264.089Z" fill="black"/>
<path d="M204.069 260.471C204.069 260.471 181.826 252.703 166.645 240.346C166.645 240.346 170.423 238.678 173 238.228C175.988 237.706 180.767 237.522 180.767 237.522C180.767 237.522 186.893 237.35 190.653 238.228C193.898 238.985 195.4 240.35 198.42 241.758C201.885 243.374 203.754 244.439 207.247 245.995C211.994 248.11 214.606 249.511 219.604 250.938C227.086 253.074 239.375 253.409 239.375 253.409C239.375 253.409 231.305 252.362 226.312 250.938C221.19 249.478 218.414 248.276 213.602 245.995C209.475 244.039 207.368 242.541 203.363 240.346C200.333 238.685 198.826 237.337 195.596 236.109C188.874 233.555 184.427 234.671 177.237 234.697C168.785 234.727 164.142 236.42 155.7 236.815C147.987 237.177 143.641 236.46 135.928 236.815C129.432 237.115 119.335 238.228 119.335 238.228L127.102 243.524L131.692 247.054C131.692 247.054 137.724 245.576 141.577 244.583C144.201 243.907 148.286 242.818 148.286 242.818C148.286 242.818 151.692 241.856 153.935 241.758C156.857 241.631 158.536 242.016 161.349 242.818C163.491 243.428 164.658 243.929 166.645 244.936C169.305 246.285 170.518 247.518 173 249.173C175.482 250.827 176.731 251.991 179.355 253.409C183.117 255.442 185.629 255.691 189.594 257.293C193.488 258.866 195.471 260.276 199.479 261.53C203.377 262.748 205.648 263.32 209.718 263.648C214.957 264.071 217.936 263.365 223.134 262.589C229.155 261.69 238.316 259.058 238.316 259.058C238.316 259.058 230.999 259.913 226.312 260.471C222.865 260.881 220.953 261.352 217.485 261.53C214.869 261.664 213.389 261.733 210.777 261.53C208.133 261.324 204.069 260.471 204.069 260.471Z" fill="black"/>
<path d="M296.218 217.838C297.983 214.661 302.573 204.775 302.573 204.775C302.573 204.775 299.228 208.187 298.689 210.071C297.983 212.542 297.63 212.542 296.218 215.367C294.806 218.191 294.774 214.685 294.1 213.955C293.179 212.957 292.901 212.118 292.687 210.777C292.423 209.121 293.393 206.54 293.393 206.54C293.393 206.54 291.759 208.989 291.628 210.777C291.443 213.305 294.3 215.718 293.747 218.191C293.379 219.834 292.78 220.514 291.981 221.369C290.173 223.304 289.03 226.27 287.391 228.077C285.335 230.344 282.802 231.961 282.802 231.961C282.802 231.961 281.819 229.852 281.389 228.43C280.309 224.857 280.166 222.594 280.683 218.897C280.98 216.778 282.096 213.602 282.096 213.602C282.096 213.602 279.86 216.629 279.271 218.897C278.436 222.111 279.977 227.371 279.977 227.371L282.096 233.726C282.096 233.726 279.389 236.412 277.506 237.963C274.907 240.102 270.445 242.906 270.445 242.906L260.206 250.673L254.557 253.497L245.73 258.44L230.549 264.089L216.426 267.62C216.426 267.62 222.354 262.758 226.312 259.852C229.025 257.861 230.561 256.759 233.373 254.91C237.403 252.259 239.603 250.615 243.965 248.555C248.46 246.431 251.289 245.995 255.969 244.318C260.527 242.685 263.615 242.801 267.62 240.081C270.685 238 274.328 233.373 274.328 233.373L268.326 238.316L262.324 241.493C262.324 241.493 257.837 242.906 254.91 243.612C252.176 244.27 250.548 244.234 247.849 245.024C243.643 246.255 241.388 247.394 237.61 249.614C234.542 251.416 233.127 252.893 230.196 254.91C227.738 256.6 226.328 257.501 223.841 259.146C220.268 261.509 218.111 262.61 214.661 265.148C212.684 266.603 209.718 269.032 209.718 269.032C209.718 269.032 204.34 269.299 200.892 269.385C195.102 269.53 191.835 269.85 186.063 269.385C181.34 269.005 178.701 268.569 174.059 267.62C168.882 266.561 160.996 264.089 160.996 264.089H171.588C175.724 264.089 178.951 263.814 183.592 263.03C187.647 262.345 189.908 261.797 193.83 260.559C198.372 259.124 200.86 258.08 205.128 255.969C208.838 254.134 210.678 252.661 214.308 250.673C217.986 248.659 220.006 247.429 223.841 245.73C228.784 243.54 236.904 241.14 236.904 241.14L228.077 242.906C228.077 242.906 223.726 244.052 221.016 245.024C216.139 246.773 213.742 248.558 209.012 250.673C205.178 252.388 203.036 253.374 199.126 254.91C194.905 256.567 192.686 258.27 188.181 258.793C185.853 259.064 184.523 258.793 182.179 258.793C176.94 258.793 173.998 259.008 168.763 258.793L168.341 258.776C163.304 258.57 157.228 258.322 155.7 257.734C151.11 255.969 150.404 257.028 144.755 254.557C137.962 251.585 141.669 253.122 138.047 251.379C133.146 249.021 131.339 245.73 127.102 242.906C122.865 240.081 119.688 238.316 117.569 235.491C108.071 222.828 97.0917 210.071 97.0917 210.071L95.6794 208.659C91.9873 204.825 87.5591 197.714 87.5591 197.714C85.7666 194.267 84.8563 192.283 82.9693 188.887C80.1439 183.802 77.0072 181.707 75.2019 176.177C73.567 171.169 73.7897 162.761 73.7897 162.761V155.346V148.285V140.871C73.7897 136.597 72.6221 134.038 73.7897 129.926C74.7335 126.602 75.8845 124.87 78.0264 122.159C80.2056 119.4 82.3324 118.723 84.7346 116.157C87.0154 113.72 88.6929 112.507 90.0305 109.449C91.1575 106.872 91.4427 102.387 91.4427 102.387C91.4427 102.387 89.7634 106.407 88.2652 108.742C86.5208 111.462 85.3415 112.905 82.9693 115.098C80.2734 117.59 77.8439 117.844 75.2019 120.393C72.2837 123.209 69.1999 128.867 69.1999 128.867C69.1999 128.867 70.0356 123.43 70.9652 120.04C71.8531 116.802 72.6263 115.07 73.7897 111.92C75.6971 106.756 79.0856 98.8568 79.0856 98.8568C79.0856 98.8568 81.4849 97.6223 82.9693 96.7384C85.8613 95.0162 87.235 93.6706 90.0305 91.7955C92.3491 90.2404 93.3346 88.6298 96.0325 87.9119C97.5042 87.5203 98.4064 87.3592 99.9162 87.5588C101.213 87.7302 103.094 88.618 103.094 88.618C103.094 88.618 102.216 87.1089 101.328 86.4996C99.9453 85.5506 98.7683 85.7432 97.0917 85.7935C94.123 85.8826 92.7177 87.3532 90.0305 88.618C87.183 89.9582 82.9693 92.5017 82.9693 92.5017C82.9693 92.5017 83.3389 90.7632 83.6754 89.6772C84.9914 85.4299 86.7453 83.4135 89.3244 79.7915C91.9876 76.0512 94.1854 74.5197 97.0917 70.965C98.6455 69.0644 100.975 66.0221 100.975 66.0221C100.975 66.0221 110.152 65.6922 115.804 64.2568C119.481 63.3231 121.506 62.5941 124.983 61.0793C129.17 59.2557 131.228 57.6442 135.222 55.4303C141.161 52.1386 150.404 46.9568 150.404 46.9568L163.82 40.6017C163.82 40.6017 155.552 43.6115 150.404 45.8976C143.754 48.8508 140.483 51.4699 133.81 54.3711C128.009 56.8934 124.803 58.6462 118.628 60.0201C113.753 61.1047 105.918 61.4323 105.918 61.4323C105.918 61.4323 109.511 56.8478 112.273 54.3711C115.747 51.2565 118.229 50.1771 122.159 47.663C127.418 44.2989 130.38 42.404 135.928 39.5426C143.121 35.8331 147.258 33.798 154.994 31.4222C161.198 29.5167 164.807 28.7912 171.234 27.8916C177.802 26.9724 181.554 27.0513 188.181 26.8324C195.623 26.5866 199.838 26.0971 207.247 26.8324C212.818 27.3853 221.369 29.3038 221.369 29.3038C221.369 29.3038 231.008 32.0855 236.904 34.5997C240.421 36.0995 245.73 38.8364 245.73 38.8364C245.73 38.8364 263.383 45.5448 258.087 43.0733C253.331 40.8538 237.742 33.4091 232.314 31.7752C226.709 30.088 217.597 27.1632 211.836 26.1262C205.841 25.047 202.387 24.9863 196.302 24.714C190.379 24.449 187.035 24.3109 181.12 24.714C176.547 25.0256 173.984 25.3396 169.469 26.1262C165.275 26.8569 162.905 27.4682 158.882 28.5054L158.524 28.5977C153.371 29.9262 150.489 30.7369 145.461 32.4813C140.841 34.0843 138.236 34.9913 133.81 37.0711C128.95 39.355 126.397 40.9931 121.806 43.7793L121.434 44.0049C117.151 46.6037 114.627 48.1352 110.508 51.1936C105.561 54.8664 102.873 57.0881 98.5039 61.4323C94.9717 64.9441 93.2665 67.1786 90.0305 70.965C86.7845 74.763 84.8021 76.7767 81.9101 80.8507C79.8288 83.7825 78.7561 85.4992 76.9672 88.618C74.298 93.2717 73.1553 96.0776 70.9652 100.975C68.8956 105.603 67.6023 108.162 66.0223 112.979C64.8653 116.507 63.5509 122.159 63.5509 122.159C63.5509 122.159 63.0147 120.458 62.8448 119.334C62.5769 117.562 62.6286 116.524 62.8448 114.744C63.1395 112.319 63.8804 111.074 64.6101 108.742C65.3914 106.246 66.1115 104.93 66.7285 102.387C67.3861 99.6776 67.8092 98.1145 67.7876 95.3262C67.7672 92.6741 66.7285 88.618 66.7285 88.618C66.7285 88.618 66.9414 92.7151 66.7285 95.3262C66.57 97.2696 66.529 98.3861 66.0223 100.269C65.3967 102.594 64.383 103.658 63.5509 105.918C62.5103 108.744 62.1045 110.397 61.4326 113.332C60.9317 115.52 60.3734 118.981 60.3734 118.981L59.6672 118.275C59.6672 118.275 57.8467 116.21 56.4897 115.098C55.5725 114.345 55.0247 113.96 54.0183 113.332C52.0816 112.125 50.9161 111.491 48.7224 110.861C46.4539 110.21 42.7203 110.155 42.7203 110.155C42.7203 110.155 46.0663 110.684 48.0162 111.567C50.7043 112.784 51.8866 114.116 54.0183 116.157C56.5694 118.599 57.9168 120.151 59.6672 123.218C60.8608 125.309 61.3066 126.607 62.1387 128.867C63.1793 131.693 63.8915 133.292 64.257 136.281C64.5416 138.608 64.328 139.94 64.257 142.283C64.1481 145.877 63.6558 147.869 63.5509 151.463C63.4865 153.668 63.5509 157.112 63.5509 157.112C63.5509 157.112 64.0845 161.819 64.6101 164.526C64.8845 165.939 64.4945 166.269 64.6101 167.704C64.7686 169.671 65.6693 178.296 65.6693 178.296C65.6693 178.296 65.6693 181.473 66.0223 184.651C66.4583 188.574 64.994 189.487 63.5509 190.653C61.4683 192.335 56.4897 189.24 53.6652 187.828C51.9878 186.99 48.4698 186.227 46.604 186.416C44.1008 186.67 42.5933 186.27 40.2489 185.357L40.2117 185.342C38.4488 184.655 37.3572 184.23 36.0122 182.885C34.6577 181.531 34.3652 180.377 33.5407 178.648C32.9016 177.308 32.6055 176.524 32.1285 175.118C31.3981 172.964 30.8522 171.739 30.7163 169.469C30.5577 166.821 31.4992 165.398 31.7754 162.761C32.063 160.015 33.1185 158.277 32.1285 155.7C31.6621 154.485 30.3632 152.875 30.3632 152.875C30.3632 152.875 31.1665 154.328 31.4224 155.346C31.9975 157.635 31.4398 159.102 30.7163 161.349C30.1492 163.109 29.1415 163.817 28.5979 165.585C27.7866 168.224 28.1097 169.889 28.2448 172.646C28.3813 175.432 29.304 179.708 29.304 179.708C29.304 179.708 27.5104 177.832 26.4795 176.53C24.7461 174.342 24.1003 172.88 22.5959 170.528C20.9262 167.918 19.9798 166.461 18.3591 163.82C17.0976 161.764 16.5877 160.484 15.1816 158.524C13.8127 156.616 11.2979 153.934 11.2979 153.934L7.76731 150.404C7.76731 150.404 9.53738 152.736 10.5918 154.287C11.6026 155.774 12.1031 156.651 13.0632 158.171C14.4526 160.37 15.4846 161.467 16.5938 163.82C17.7093 166.186 17.9714 167.666 18.7122 170.175C19.1573 171.683 19.7714 174.059 19.7714 174.059C19.7714 174.059 18.9027 174.152 18.3591 174.059C17.2636 173.87 16.9178 173.064 15.8877 172.646C13.9543 171.862 12.633 172.373 10.5918 171.94C9.05389 171.614 6.70813 170.881 6.70813 170.881C6.70813 170.881 9.65527 172.346 11.651 173C13.2717 173.531 14.3149 173.399 15.8877 174.059C17.3705 174.681 18.1232 175.224 19.4183 176.177C20.4422 176.93 20.9924 177.395 21.8897 178.295C23.1362 179.546 23.657 180.412 24.7142 181.826C25.722 183.174 26.0781 184.089 27.1857 185.357C28.7308 187.125 31.7754 189.24 31.7754 189.24L29.6571 190.653C29.6571 190.653 27.6632 191.864 26.4795 192.771C25.3163 193.663 24.6227 194.142 23.655 195.242C22.6704 196.362 22.4791 197.264 21.5367 198.42C20.1183 200.159 19.1988 201.107 17.3 202.304C14.4956 204.071 9.17956 204.775 9.17956 204.775C9.17956 204.775 13.1153 204.992 15.5346 204.422C17.4039 203.981 18.5125 203.701 20.1244 202.657C21.7611 201.597 22.2515 200.48 23.655 199.126C26.3255 196.551 27.1936 193.935 30.7163 192.771C33.4655 191.863 35.2432 192.554 38.1305 192.771L38.2116 192.777C42.0728 193.067 44.3446 193.238 48.0162 194.536C51.5643 195.791 53.2637 197.188 56.4897 199.126C59.8989 201.174 62.5763 202.437 66.0223 204.422C69.8695 206.639 75.2019 209.718 75.2019 209.718C75.2019 209.718 79.1498 214.472 81.204 217.838C83.7422 221.998 87.5591 228.43 87.5591 228.43C87.5591 228.43 91.605 234.787 94.9733 238.316C99.6853 243.253 102.09 246.301 107.33 250.673C112.878 255.302 116.446 257.432 122.565 261.086L122.865 261.265C129.906 265.469 133.986 267.695 141.577 270.797C150.502 274.444 155.763 276.051 165.232 277.859C175.287 279.778 191.359 279.977 191.359 279.977C191.359 279.977 204.069 279.624 212.543 277.859C221.016 276.093 231.608 272.21 231.608 272.21C231.608 272.21 240.474 269.086 245.73 266.208C250.694 263.489 253.132 261.381 257.734 258.087C261.659 255.279 263.86 253.698 267.62 250.673C272.188 246.998 274.764 244.924 278.918 240.787C283.21 236.513 289.157 229.136 289.157 229.136C289.157 229.136 294.453 221.016 296.218 217.838Z" fill="black"/>
<path d="M269.501 30.5407C265.273 31.0545 263.751 35.2201 260.594 36.0273C258.219 36.6348 256.015 34.8476 254.823 33.6249C254.823 33.6249 253.302 34.4382 251.88 35.7851C251.403 36.2372 250.633 35.1764 251.019 34.7858C255.904 29.8419 265.028 30.2799 265.028 30.2799C265.028 30.2799 259.6 27.6441 253.808 30.8679C254.188 29.722 255.32 26.6667 258.976 26.0795C263.935 25.2808 270.488 30.4213 269.501 30.5407Z" fill="#1E1E1E"/>
<path d="M196.907 48.3774C195.317 43.8681 190.382 43.2114 188.73 39.9477C187.487 37.4914 188.911 34.6422 189.962 33.0388C189.962 33.0388 188.701 31.5695 186.879 30.3375C186.268 29.9247 187.244 28.8227 187.765 29.1506C194.371 33.3041 196.107 43.4118 196.107 43.4118C196.107 43.4118 197.678 36.8224 192.737 31.2561C194.085 31.3943 197.709 31.8929 199.241 35.7582C201.321 40.999 197.278 49.43 196.907 48.3774Z" fill="#1E1E1E"/>
<defs>
<linearGradient id="paint0_linear_126_3" x1="133.457" y1="150.157" x2="221.109" y2="150.157" gradientUnits="userSpaceOnUse">
<stop stop-color="#1E1E1E"/>
<stop offset="1" stop-color="#4E4E4E"/>
</linearGradient>
<linearGradient id="paint1_linear_126_3" x1="136.281" y1="177.675" x2="282.281" y2="177.675" gradientUnits="userSpaceOnUse">
<stop stop-color="#1E1E1E"/>
<stop offset="1" stop-color="#4E4E4E"/>
</linearGradient>
<clipPath id="clip0_126_3">
<rect width="31.7755" height="31.7755" fill="white" transform="translate(232.314 129.22)"/>
</clipPath>
</defs>
</svg>
