<svg width="104" height="107" viewBox="0 0 104 107" fill="none" xmlns="http://www.w3.org/2000/svg">
<path d="M23.52 95.04H38.34V105H1.98L20.46 84.9C21.78 83.5 22.96 81.84 24 79.92C25.08 77.96 25.62 75.94 25.62 73.86C25.62 73.82 25.62 73.78 25.62 73.74C25.62 73.66 25.62 73.58 25.62 73.5C25.54 72.14 25.04 70.88 24.12 69.72C23.2 68.56 21.98 67.98 20.46 67.98C18.86 67.98 17.64 68.52 16.8 69.6C15.96 70.68 15.54 71.98 15.54 73.5C15.54 73.78 15.56 74.1 15.6 74.46C15.64 74.78 15.68 75.1 15.72 75.42L2.76 75.36C2.96 70.2 4.62 66.02 7.74 62.82C10.86 59.62 15.08 58.02 20.4 58.02C25.16 58.02 29.26 59.48 32.7 62.4C36.14 65.28 37.86 69.18 37.86 74.1C37.86 76.9 37.38 79.28 36.42 81.24C35.46 83.2 34.08 85.08 32.28 86.88C32 87.16 31.72 87.44 31.44 87.72C31.16 88 30.86 88.28 30.54 88.56L23.52 95.04ZM61.7128 57.96C67.9928 58 72.6528 60.32 75.6928 64.92C78.7728 69.52 80.4928 74.58 80.8528 80.1C80.8528 80.5 80.8528 80.9 80.8528 81.3C80.8928 81.66 80.9128 82.04 80.9128 82.44C80.9128 82.84 80.8928 83.24 80.8528 83.64C80.8528 84 80.8528 84.38 80.8528 84.78C80.4928 90.3 78.7928 95.36 75.7528 99.96C72.7128 104.52 68.0328 106.8 61.7128 106.8C55.3928 106.8 50.7128 104.52 47.6728 99.96C44.6328 95.36 42.9328 90.3 42.5728 84.78C42.5728 84.38 42.5528 84 42.5128 83.64C42.5128 83.24 42.5128 82.84 42.5128 82.44C42.5128 82.04 42.5128 81.66 42.5128 81.3C42.5528 80.9 42.5728 80.5 42.5728 80.1C42.9328 74.58 44.6328 69.52 47.6728 64.92C50.7528 60.32 55.4328 58.02 61.7128 58.02V57.96ZM61.7128 68.34C59.7528 68.38 58.2328 69.24 57.1528 70.92C56.1128 72.6 55.3528 74.44 54.8728 76.44C54.6328 77.56 54.4528 78.64 54.3328 79.68C54.2528 80.72 54.2128 81.62 54.2128 82.38C54.2128 83.14 54.2528 84.06 54.3328 85.14C54.4528 86.18 54.6328 87.26 54.8728 88.38C55.3528 90.42 56.1128 92.28 57.1528 93.96C58.2328 95.64 59.7528 96.48 61.7128 96.48C63.6728 96.48 65.1728 95.64 66.2128 93.96C67.2928 92.28 68.0728 90.42 68.5528 88.38C68.7928 87.26 68.9528 86.18 69.0328 85.14C69.1528 84.06 69.2128 83.14 69.2128 82.38C69.2128 81.62 69.1528 80.72 69.0328 79.68C68.9528 78.64 68.7928 77.56 68.5528 76.44C68.0728 74.44 67.2928 72.6 66.2128 70.92C65.1728 69.24 63.6728 68.4 61.7128 68.4V68.34ZM92.5856 92.16C94.5456 92.2 96.2056 92.9 97.5656 94.26C98.9256 95.62 99.6056 97.28 99.6056 99.24C99.6056 101.16 98.9256 102.8 97.5656 104.16C96.2056 105.52 94.5456 106.2 92.5856 106.2C90.6256 106.2 88.9656 105.52 87.6056 104.16C86.2456 102.8 85.5656 101.16 85.5656 99.24C85.5656 97.28 86.2456 95.62 87.6056 94.26C88.9656 92.9 90.6256 92.22 92.5856 92.22V92.16Z" fill="black"/>
<path d="M34 2.50126H5V47.5013H34V37.5013H16.5V29.5013H34V19.5013H16.5V12.5013H34V2.50126Z" fill="black"/>
<path d="M77.5 18.0013V3.50126C77.5 3.50126 70.9048 0.935079 66.5 1.00126C53.6601 1.19417 43.5349 11.171 43 24.0013C42.4418 37.3889 53.1022 48.8011 66.5 49.0013C70.9048 49.0671 77.5 46.5013 77.5 46.5013V32.5013C77.5 32.5013 71.2046 37.8661 66.5 37.5013C59.5951 36.9658 54.4477 30.9048 55 24.0013C55.5065 17.6702 60.1606 12.8894 66.5 12.5013C71.2938 12.2078 77.5 18.0013 77.5 18.0013Z" fill="black"/>
<path d="M34 2.50126H5V47.5013H34V37.5013H16.5V29.5013H34V19.5013H16.5V12.5013H34V2.50126Z" stroke="black"/>
<path d="M77.5 18.0013V3.50126C77.5 3.50126 70.9048 0.935079 66.5 1.00126C53.6601 1.19417 43.5349 11.171 43 24.0013C42.4418 37.3889 53.1022 48.8011 66.5 49.0013C70.9048 49.0671 77.5 46.5013 77.5 46.5013V32.5013C77.5 32.5013 71.2046 37.8661 66.5 37.5013C59.5951 36.9658 54.4477 30.9048 55 24.0013C55.5065 17.6702 60.1606 12.8894 66.5 12.5013C71.2938 12.2078 77.5 18.0013 77.5 18.0013Z" stroke="black"/>
</svg>
